<?xml version="1.0" standalone="no"?>
<!DOCTYPE svg PUBLIC "-//W3C//DTD SVG 20010904//EN"
 "http://www.w3.org/TR/2001/REC-SVG-20010904/DTD/svg10.dtd">
<svg version="1.0" xmlns="http://www.w3.org/2000/svg"
 width="133.000000pt" height="133.000000pt" viewBox="0 0 133.000000 133.000000"
 preserveAspectRatio="xMidYMid meet">
<metadata>
Created by potrace 1.14, written by Peter Selinger 2001-2017
</metadata>
<g transform="translate(0.000000,133.000000) scale(0.100000,-0.100000)"
fill="#000000" stroke="none">
<path d="M525 1319 c-204 -66 -331 -168 -416 -335 l-41 -82 16 -50 c32 -95
123 -213 241 -311 41 -34 72 -50 115 -57 95 -18 201 -62 223 -95 9 -12 12 -36
10 -63 -4 -37 -1 -46 18 -60 21 -14 24 -14 40 0 14 12 17 26 13 54 -6 40 6 73
37 103 18 17 21 17 49 1 40 -24 67 -64 75 -110 11 -65 13 -178 5 -225 -7 -37
-5 -47 10 -61 24 -22 34 -22 51 -2 10 12 13 50 12 138 0 66 5 156 13 199 18
100 36 136 180 359 24 36 53 89 64 117 20 51 20 52 0 103 -60 159 -217 304
-390 360 -73 23 -272 34 -325 17z"/>
</g>
</svg>
